<svg width="189" height="23" viewBox="0 0 189 23" fill="none" xmlns="http://www.w3.org/2000/svg">
<path d="M7.492 2.6C8.856 2.6 10.0367 2.82733 11.034 3.282C12.046 3.73667 12.8233 4.382 13.366 5.218C13.9087 6.054 14.18 7.044 14.18 8.188C14.18 9.31733 13.9087 10.3073 13.366 11.158C12.8233 11.994 12.046 12.6393 11.034 13.094C10.0367 13.534 8.856 13.754 7.492 13.754H4.39V18H0.826V2.6H7.492ZM7.294 10.85C8.36467 10.85 9.17867 10.6227 9.736 10.168C10.2933 9.69867 10.572 9.03867 10.572 8.188C10.572 7.32267 10.2933 6.66267 9.736 6.208C9.17867 5.73867 8.36467 5.504 7.294 5.504H4.39V10.85H7.294ZM21.149 5.988C22.9823 5.988 24.3903 6.428 25.373 7.308C26.3557 8.17333 26.847 9.486 26.847 11.246V18H23.635V16.526C22.9897 17.626 21.787 18.176 20.027 18.176C19.1177 18.176 18.3257 18.022 17.651 17.714C16.991 17.406 16.485 16.9807 16.133 16.438C15.781 15.8953 15.605 15.2793 15.605 14.59C15.605 13.49 16.0157 12.6247 16.837 11.994C17.673 11.3633 18.9563 11.048 20.687 11.048H23.415C23.415 10.3 23.1877 9.728 22.733 9.332C22.2783 8.92133 21.5963 8.716 20.687 8.716C20.0563 8.716 19.433 8.81867 18.817 9.024C18.2157 9.21467 17.7023 9.47867 17.277 9.816L16.045 7.418C16.6903 6.96333 17.4603 6.61133 18.355 6.362C19.2643 6.11267 20.1957 5.988 21.149 5.988ZM20.885 15.866C21.4717 15.866 21.9923 15.734 22.447 15.47C22.9017 15.1913 23.2243 14.788 23.415 14.26V13.05H21.061C19.653 13.05 18.949 13.512 18.949 14.436C18.949 14.876 19.1177 15.228 19.455 15.492C19.807 15.7413 20.2837 15.866 20.885 15.866ZM41.4863 6.164L36.1403 18.726C35.5976 20.09 34.923 21.0507 34.1163 21.608C33.3243 22.1653 32.3636 22.444 31.2343 22.444C30.6183 22.444 30.0096 22.3487 29.4083 22.158C28.807 21.9673 28.3156 21.7033 27.9343 21.366L29.1883 18.924C29.4523 19.1587 29.753 19.342 30.0903 19.474C30.4423 19.606 30.787 19.672 31.1243 19.672C31.5936 19.672 31.975 19.5547 32.2683 19.32C32.5616 19.1 32.8256 18.726 33.0603 18.198L33.1043 18.088L27.9783 6.164H31.5203L34.8423 14.194L38.1863 6.164H41.4863ZM58.0447 5.988C59.5261 5.988 60.6994 6.428 61.5647 7.308C62.4447 8.17333 62.8847 9.47867 62.8847 11.224V18H59.4527V11.752C59.4527 10.8133 59.2547 10.1167 58.8587 9.662C58.4774 9.19267 57.9274 8.958 57.2087 8.958C56.4021 8.958 55.7641 9.222 55.2947 9.75C54.8254 10.2633 54.5907 11.0333 54.5907 12.06V18H51.1587V11.752C51.1587 9.88933 50.4107 8.958 48.9147 8.958C48.1227 8.958 47.4921 9.222 47.0227 9.75C46.5534 10.2633 46.3187 11.0333 46.3187 12.06V18H42.8867V6.164H46.1647V7.528C46.6047 7.02933 47.1401 6.648 47.7707 6.384C48.4161 6.12 49.1201 5.988 49.8827 5.988C50.7187 5.988 51.4741 6.15667 52.1487 6.494C52.8234 6.81667 53.3661 7.29333 53.7767 7.924C54.2607 7.308 54.8694 6.83133 55.6027 6.494C56.3507 6.15667 57.1647 5.988 58.0447 5.988ZM77.6839 12.126C77.6839 12.17 77.6619 12.478 77.6179 13.05H68.6639C68.8252 13.7833 69.2065 14.3627 69.8079 14.788C70.4092 15.2133 71.1572 15.426 72.0519 15.426C72.6679 15.426 73.2105 15.338 73.6799 15.162C74.1639 14.9713 74.6112 14.678 75.0219 14.282L76.8479 16.262C75.7332 17.538 74.1052 18.176 71.9639 18.176C70.6292 18.176 69.4485 17.9193 68.4219 17.406C67.3952 16.878 66.6032 16.152 66.0459 15.228C65.4885 14.304 65.2099 13.2553 65.2099 12.082C65.2099 10.9233 65.4812 9.882 66.0239 8.958C66.5812 8.01933 67.3365 7.29333 68.2899 6.78C69.2579 6.252 70.3359 5.988 71.5239 5.988C72.6825 5.988 73.7312 6.23733 74.6699 6.736C75.6085 7.23467 76.3419 7.95333 76.8699 8.892C77.4125 9.816 77.6839 10.894 77.6839 12.126ZM71.5459 8.584C70.7685 8.584 70.1159 8.804 69.5879 9.244C69.0599 9.684 68.7372 10.2853 68.6199 11.048H74.4499C74.3325 10.3 74.0099 9.706 73.4819 9.266C72.9539 8.81133 72.3085 8.584 71.5459 8.584ZM87.1628 5.988C88.6294 5.988 89.8101 6.428 90.7048 7.308C91.6141 8.188 92.0688 9.49333 92.0688 11.224V18H88.6368V11.752C88.6368 10.8133 88.4314 10.1167 88.0208 9.662C87.6101 9.19267 87.0161 8.958 86.2388 8.958C85.3734 8.958 84.6841 9.22933 84.1708 9.772C83.6574 10.3 83.4008 11.092 83.4008 12.148V18H79.9688V6.164H83.2468V7.55C83.7014 7.05133 84.2661 6.67 84.9408 6.406C85.6154 6.12733 86.3561 5.988 87.1628 5.988ZM102.814 17.428C102.476 17.6773 102.058 17.868 101.56 18C101.076 18.1173 100.562 18.176 100.02 18.176C98.6117 18.176 97.519 17.8167 96.7417 17.098C95.979 16.3793 95.5977 15.3233 95.5977 13.93V9.068H93.7717V6.428H95.5977V3.546H99.0297V6.428H101.978V9.068H99.0297V13.886C99.0297 14.3847 99.1544 14.7733 99.4037 15.052C99.6677 15.316 100.034 15.448 100.504 15.448C101.046 15.448 101.508 15.3013 101.89 15.008L102.814 17.428ZM111.213 2.6H118.209C119.881 2.6 121.355 2.92267 122.631 3.568C123.921 4.19867 124.919 5.09333 125.623 6.252C126.341 7.41067 126.701 8.76 126.701 10.3C126.701 11.84 126.341 13.1893 125.623 14.348C124.919 15.5067 123.921 16.4087 122.631 17.054C121.355 17.6847 119.881 18 118.209 18H111.213V2.6ZM118.033 15.074C119.573 15.074 120.797 14.6487 121.707 13.798C122.631 12.9327 123.093 11.7667 123.093 10.3C123.093 8.83333 122.631 7.67467 121.707 6.824C120.797 5.95867 119.573 5.526 118.033 5.526H114.777V15.074H118.033ZM140.741 12.126C140.741 12.17 140.719 12.478 140.675 13.05H131.721C131.882 13.7833 132.263 14.3627 132.865 14.788C133.466 15.2133 134.214 15.426 135.109 15.426C135.725 15.426 136.267 15.338 136.737 15.162C137.221 14.9713 137.668 14.678 138.079 14.282L139.905 16.262C138.79 17.538 137.162 18.176 135.021 18.176C133.686 18.176 132.505 17.9193 131.479 17.406C130.452 16.878 129.66 16.152 129.103 15.228C128.545 14.304 128.267 13.2553 128.267 12.082C128.267 10.9233 128.538 9.882 129.081 8.958C129.638 8.01933 130.393 7.29333 131.347 6.78C132.315 6.252 133.393 5.988 134.581 5.988C135.739 5.988 136.788 6.23733 137.727 6.736C138.665 7.23467 139.399 7.95333 139.927 8.892C140.469 9.816 140.741 10.894 140.741 12.126ZM134.603 8.584C133.825 8.584 133.173 8.804 132.645 9.244C132.117 9.684 131.794 10.2853 131.677 11.048H137.507C137.389 10.3 137.067 9.706 136.539 9.266C136.011 8.81133 135.365 8.584 134.603 8.584ZM150.659 17.428C150.322 17.6773 149.904 17.868 149.405 18C148.921 18.1173 148.408 18.176 147.865 18.176C146.457 18.176 145.365 17.8167 144.587 17.098C143.825 16.3793 143.443 15.3233 143.443 13.93V9.068H141.617V6.428H143.443V3.546H146.875V6.428H149.823V9.068H146.875V13.886C146.875 14.3847 147 14.7733 147.249 15.052C147.513 15.316 147.88 15.448 148.349 15.448C148.892 15.448 149.354 15.3013 149.735 15.008L150.659 17.428ZM157.36 5.988C159.193 5.988 160.601 6.428 161.584 7.308C162.567 8.17333 163.058 9.486 163.058 11.246V18H159.846V16.526C159.201 17.626 157.998 18.176 156.238 18.176C155.329 18.176 154.537 18.022 153.862 17.714C153.202 17.406 152.696 16.9807 152.344 16.438C151.992 15.8953 151.816 15.2793 151.816 14.59C151.816 13.49 152.227 12.6247 153.048 11.994C153.884 11.3633 155.167 11.048 156.898 11.048H159.626C159.626 10.3 159.399 9.728 158.944 9.332C158.489 8.92133 157.807 8.716 156.898 8.716C156.267 8.716 155.644 8.81867 155.028 9.024C154.427 9.21467 153.913 9.47867 153.488 9.816L152.256 7.418C152.901 6.96333 153.671 6.61133 154.566 6.362C155.475 6.11267 156.407 5.988 157.36 5.988ZM157.096 15.866C157.683 15.866 158.203 15.734 158.658 15.47C159.113 15.1913 159.435 14.788 159.626 14.26V13.05H157.272C155.864 13.05 155.16 13.512 155.16 14.436C155.16 14.876 155.329 15.228 155.666 15.492C156.018 15.7413 156.495 15.866 157.096 15.866ZM166.164 6.164H169.596V18H166.164V6.164ZM167.88 4.514C167.249 4.514 166.736 4.33067 166.34 3.964C165.944 3.59733 165.746 3.14267 165.746 2.6C165.746 2.05733 165.944 1.60267 166.34 1.236C166.736 0.869332 167.249 0.685999 167.88 0.685999C168.511 0.685999 169.024 0.861999 169.42 1.214C169.816 1.566 170.014 2.006 170.014 2.534C170.014 3.106 169.816 3.58267 169.42 3.964C169.024 4.33067 168.511 4.514 167.88 4.514ZM172.781 1.676H176.213V18H172.781V1.676ZM183.38 18.176C182.398 18.176 181.437 18.0587 180.498 17.824C179.56 17.5747 178.812 17.2667 178.254 16.9L179.398 14.436C179.926 14.7733 180.564 15.052 181.312 15.272C182.06 15.4773 182.794 15.58 183.512 15.58C184.964 15.58 185.69 15.2207 185.69 14.502C185.69 14.1647 185.492 13.9227 185.096 13.776C184.7 13.6293 184.092 13.5047 183.27 13.402C182.302 13.2553 181.503 13.0867 180.872 12.896C180.242 12.7053 179.692 12.368 179.222 11.884C178.768 11.4 178.54 10.7107 178.54 9.816C178.54 9.068 178.753 8.408 179.178 7.836C179.618 7.24933 180.249 6.79467 181.07 6.472C181.906 6.14933 182.889 5.988 184.018 5.988C184.854 5.988 185.683 6.08333 186.504 6.274C187.34 6.45 188.03 6.69933 188.572 7.022L187.428 9.464C186.387 8.87733 185.25 8.584 184.018 8.584C183.285 8.584 182.735 8.68667 182.368 8.892C182.002 9.09733 181.818 9.36133 181.818 9.684C181.818 10.0507 182.016 10.3073 182.412 10.454C182.808 10.6007 183.439 10.74 184.304 10.872C185.272 11.0333 186.064 11.2093 186.68 11.4C187.296 11.576 187.832 11.906 188.286 12.39C188.741 12.874 188.968 13.5487 188.968 14.414C188.968 15.1473 188.748 15.8 188.308 16.372C187.868 16.944 187.223 17.3913 186.372 17.714C185.536 18.022 184.539 18.176 183.38 18.176Z" fill="black"/>
</svg>
