<svg width="152" height="19" viewBox="0 0 152 19" fill="none" xmlns="http://www.w3.org/2000/svg">
<path d="M6.886 18.264C5.66867 18.264 4.488 18.1027 3.344 17.78C2.21467 17.4427 1.30533 17.01 0.616 16.482L1.826 13.798C2.486 14.282 3.27067 14.6707 4.18 14.964C5.08933 15.2573 5.99867 15.404 6.908 15.404C7.92 15.404 8.668 15.2573 9.152 14.964C9.636 14.656 9.878 14.2527 9.878 13.754C9.878 13.3873 9.73133 13.0867 9.438 12.852C9.15933 12.6027 8.79267 12.4047 8.338 12.258C7.898 12.1113 7.29667 11.95 6.534 11.774C5.36067 11.4953 4.4 11.2167 3.652 10.938C2.904 10.6593 2.25867 10.212 1.716 9.596C1.188 8.98 0.924 8.15867 0.924 7.132C0.924 6.23733 1.166 5.43067 1.65 4.712C2.134 3.97867 2.86 3.39933 3.828 2.974C4.81067 2.54867 6.006 2.336 7.414 2.336C8.39667 2.336 9.35733 2.45333 10.296 2.688C11.2347 2.92267 12.056 3.26 12.76 3.7L11.66 6.406C10.2373 5.59933 8.81467 5.196 7.392 5.196C6.39467 5.196 5.654 5.35733 5.17 5.68C4.70067 6.00267 4.466 6.428 4.466 6.956C4.466 7.484 4.73733 7.88 5.28 8.144C5.83733 8.39333 6.68067 8.64267 7.81 8.892C8.98333 9.17067 9.944 9.44933 10.692 9.728C11.44 10.0067 12.078 10.4467 12.606 11.048C13.1487 11.6493 13.42 12.4633 13.42 13.49C13.42 14.37 13.1707 15.1767 12.672 15.91C12.188 16.6287 11.4547 17.2007 10.472 17.626C9.48933 18.0513 8.294 18.264 6.886 18.264ZM23.2473 17.428C22.91 17.6773 22.492 17.868 21.9933 18C21.5093 18.1173 20.996 18.176 20.4533 18.176C19.0453 18.176 17.9526 17.8167 17.1753 17.098C16.4126 16.3793 16.0313 15.3233 16.0313 13.93V9.068H14.2053V6.428H16.0313V3.546H19.4633V6.428H22.4113V9.068H19.4633V13.886C19.4633 14.3847 19.588 14.7733 19.8373 15.052C20.1013 15.316 20.468 15.448 20.9373 15.448C21.48 15.448 21.942 15.3013 22.3233 15.008L23.2473 17.428ZM37.0978 6.164V18H33.8418V16.592C33.3872 17.1053 32.8445 17.5013 32.2138 17.78C31.5832 18.044 30.9012 18.176 30.1678 18.176C28.6132 18.176 27.3812 17.7287 26.4718 16.834C25.5625 15.9393 25.1078 14.612 25.1078 12.852V6.164H28.5398V12.346C28.5398 14.2527 29.3392 15.206 30.9378 15.206C31.7592 15.206 32.4192 14.942 32.9178 14.414C33.4165 13.8713 33.6658 13.072 33.6658 12.016V6.164H37.0978ZM52.3334 1.676V18H49.0554V16.636C48.2047 17.6627 46.9727 18.176 45.3594 18.176C44.2447 18.176 43.2327 17.9267 42.3234 17.428C41.4287 16.9293 40.7247 16.218 40.2114 15.294C39.698 14.37 39.4414 13.2993 39.4414 12.082C39.4414 10.8647 39.698 9.794 40.2114 8.87C40.7247 7.946 41.4287 7.23467 42.3234 6.736C43.2327 6.23733 44.2447 5.988 45.3594 5.988C46.87 5.988 48.0507 6.46467 48.9014 7.418V1.676H52.3334ZM45.9534 15.36C46.8187 15.36 47.5374 15.0667 48.1094 14.48C48.6814 13.8787 48.9674 13.0793 48.9674 12.082C48.9674 11.0847 48.6814 10.2927 48.1094 9.706C47.5374 9.10467 46.8187 8.804 45.9534 8.804C45.0734 8.804 44.3474 9.10467 43.7754 9.706C43.2034 10.2927 42.9174 11.0847 42.9174 12.082C42.9174 13.0793 43.2034 13.8787 43.7754 14.48C44.3474 15.0667 45.0734 15.36 45.9534 15.36ZM67.1038 12.126C67.1038 12.17 67.0818 12.478 67.0378 13.05H58.0838C58.2451 13.7833 58.6264 14.3627 59.2278 14.788C59.8291 15.2133 60.5771 15.426 61.4718 15.426C62.0878 15.426 62.6304 15.338 63.0998 15.162C63.5838 14.9713 64.0311 14.678 64.4418 14.282L66.2678 16.262C65.1531 17.538 63.5251 18.176 61.3838 18.176C60.0491 18.176 58.8684 17.9193 57.8418 17.406C56.8151 16.878 56.0231 16.152 55.4658 15.228C54.9084 14.304 54.6298 13.2553 54.6298 12.082C54.6298 10.9233 54.9011 9.882 55.4438 8.958C56.0011 8.01933 56.7564 7.29333 57.7098 6.78C58.6778 6.252 59.7558 5.988 60.9438 5.988C62.1024 5.988 63.1511 6.23733 64.0898 6.736C65.0284 7.23467 65.7618 7.95333 66.2898 8.892C66.8324 9.816 67.1038 10.894 67.1038 12.126ZM60.9658 8.584C60.1884 8.584 59.5358 8.804 59.0078 9.244C58.4798 9.684 58.1571 10.2853 58.0398 11.048H63.8698C63.7524 10.3 63.4298 9.706 62.9018 9.266C62.3738 8.81133 61.7284 8.584 60.9658 8.584ZM76.5827 5.988C78.0494 5.988 79.23 6.428 80.1247 7.308C81.034 8.188 81.4887 9.49333 81.4887 11.224V18H78.0567V11.752C78.0567 10.8133 77.8514 10.1167 77.4407 9.662C77.03 9.19267 76.436 8.958 75.6587 8.958C74.7934 8.958 74.104 9.22933 73.5907 9.772C73.0774 10.3 72.8207 11.092 72.8207 12.148V18H69.3887V6.164H72.6667V7.55C73.1214 7.05133 73.686 6.67 74.3607 6.406C75.0354 6.12733 75.776 5.988 76.5827 5.988ZM92.2336 17.428C91.8963 17.6773 91.4783 17.868 90.9796 18C90.4956 18.1173 89.9823 18.176 89.4396 18.176C88.0316 18.176 86.939 17.8167 86.1616 17.098C85.399 16.3793 85.0176 15.3233 85.0176 13.93V9.068H83.1916V6.428H85.0176V3.546H88.4496V6.428H91.3976V9.068H88.4496V13.886C88.4496 14.3847 88.5743 14.7733 88.8236 15.052C89.0876 15.316 89.4543 15.448 89.9236 15.448C90.4663 15.448 90.9283 15.3013 91.3096 15.008L92.2336 17.428ZM98.1422 18.176C97.1595 18.176 96.1988 18.0587 95.2602 17.824C94.3215 17.5747 93.5735 17.2667 93.0162 16.9L94.1602 14.436C94.6882 14.7733 95.3262 15.052 96.0742 15.272C96.8222 15.4773 97.5555 15.58 98.2742 15.58C99.7262 15.58 100.452 15.2207 100.452 14.502C100.452 14.1647 100.254 13.9227 99.8582 13.776C99.4622 13.6293 98.8535 13.5047 98.0322 13.402C97.0642 13.2553 96.2648 13.0867 95.6342 12.896C95.0035 12.7053 94.4535 12.368 93.9842 11.884C93.5295 11.4 93.3022 10.7107 93.3022 9.816C93.3022 9.068 93.5148 8.408 93.9402 7.836C94.3802 7.24933 95.0108 6.79467 95.8322 6.472C96.6682 6.14933 97.6508 5.988 98.7802 5.988C99.6162 5.988 100.445 6.08333 101.266 6.274C102.102 6.45 102.792 6.69933 103.334 7.022L102.19 9.464C101.149 8.87733 100.012 8.584 98.7802 8.584C98.0468 8.584 97.4968 8.68667 97.1302 8.892C96.7635 9.09733 96.5802 9.36133 96.5802 9.684C96.5802 10.0507 96.7782 10.3073 97.1742 10.454C97.5702 10.6007 98.2008 10.74 99.0662 10.872C100.034 11.0333 100.826 11.2093 101.442 11.4C102.058 11.576 102.594 11.906 103.048 12.39C103.503 12.874 103.73 13.5487 103.73 14.414C103.73 15.1473 103.51 15.8 103.07 16.372C102.63 16.944 101.985 17.3913 101.134 17.714C100.298 18.022 99.3008 18.176 98.1422 18.176ZM112.32 2.6H115.884V15.096H123.606V18H112.32V2.6ZM125.355 6.164H128.787V18H125.355V6.164ZM127.071 4.514C126.441 4.514 125.927 4.33067 125.531 3.964C125.135 3.59733 124.937 3.14267 124.937 2.6C124.937 2.05733 125.135 1.60267 125.531 1.236C125.927 0.869332 126.441 0.685999 127.071 0.685999C127.702 0.685999 128.215 0.861999 128.611 1.214C129.007 1.566 129.205 2.006 129.205 2.534C129.205 3.106 129.007 3.58267 128.611 3.964C128.215 4.33067 127.702 4.514 127.071 4.514ZM135.955 18.176C134.972 18.176 134.011 18.0587 133.073 17.824C132.134 17.5747 131.386 17.2667 130.829 16.9L131.973 14.436C132.501 14.7733 133.139 15.052 133.887 15.272C134.635 15.4773 135.368 15.58 136.087 15.58C137.539 15.58 138.265 15.2207 138.265 14.502C138.265 14.1647 138.067 13.9227 137.671 13.776C137.275 13.6293 136.666 13.5047 135.845 13.402C134.877 13.2553 134.077 13.0867 133.447 12.896C132.816 12.7053 132.266 12.368 131.797 11.884C131.342 11.4 131.115 10.7107 131.115 9.816C131.115 9.068 131.327 8.408 131.753 7.836C132.193 7.24933 132.823 6.79467 133.645 6.472C134.481 6.14933 135.463 5.988 136.593 5.988C137.429 5.988 138.257 6.08333 139.079 6.274C139.915 6.45 140.604 6.69933 141.147 7.022L140.003 9.464C138.961 8.87733 137.825 8.584 136.593 8.584C135.859 8.584 135.309 8.68667 134.943 8.892C134.576 9.09733 134.393 9.36133 134.393 9.684C134.393 10.0507 134.591 10.3073 134.987 10.454C135.383 10.6007 136.013 10.74 136.879 10.872C137.847 11.0333 138.639 11.2093 139.255 11.4C139.871 11.576 140.406 11.906 140.861 12.39C141.315 12.874 141.543 13.5487 141.543 14.414C141.543 15.1473 141.323 15.8 140.883 16.372C140.443 16.944 139.797 17.3913 138.947 17.714C138.111 18.022 137.113 18.176 135.955 18.176ZM151.294 17.428C150.957 17.6773 150.539 17.868 150.04 18C149.556 18.1173 149.043 18.176 148.5 18.176C147.092 18.176 146 17.8167 145.222 17.098C144.46 16.3793 144.078 15.3233 144.078 13.93V9.068H142.252V6.428H144.078V3.546H147.51V6.428H150.458V9.068H147.51V13.886C147.51 14.3847 147.635 14.7733 147.884 15.052C148.148 15.316 148.515 15.448 148.984 15.448C149.527 15.448 149.989 15.3013 150.37 15.008L151.294 17.428Z" fill="black"/>
</svg>
