<svg width="29" height="22" viewBox="0 0 29 22" fill="none" xmlns="http://www.w3.org/2000/svg">
<path d="M9.76805 -1.43051e-06V21H4.90805V3.9H0.708047V-1.43051e-06H9.76805ZM23.2261 8.55C25.0661 8.85 26.4761 9.54 27.4561 10.62C28.4361 11.68 28.9261 13 28.9261 14.58C28.9261 15.8 28.6061 16.93 27.9661 17.97C27.3261 18.99 26.3461 19.81 25.0261 20.43C23.7261 21.05 22.1261 21.36 20.2261 21.36C18.7461 21.36 17.2861 21.17 15.8461 20.79C14.4261 20.39 13.2161 19.83 12.2161 19.11L14.1061 15.39C14.9061 15.99 15.8261 16.46 16.8661 16.8C17.9261 17.12 19.0061 17.28 20.1061 17.28C21.3261 17.28 22.2861 17.05 22.9861 16.59C23.6861 16.11 24.0361 15.44 24.0361 14.58C24.0361 12.86 22.7261 12 20.1061 12H17.8861V8.79L22.2061 3.9H13.2661V-1.43051e-06H27.9661V3.15L23.2261 8.55Z" fill="black"/>
</svg>
