<svg width="17" height="22" viewBox="0 0 17 22" fill="none" xmlns="http://www.w3.org/2000/svg">
<path d="M11.2261 8.55C13.0661 8.85 14.4761 9.54 15.4561 10.62C16.4361 11.68 16.9261 13 16.9261 14.58C16.9261 15.8 16.6061 16.93 15.9661 17.97C15.3261 18.99 14.3461 19.81 13.0261 20.43C11.7261 21.05 10.1261 21.36 8.22609 21.36C6.74609 21.36 5.28609 21.17 3.84609 20.79C2.42609 20.39 1.21609 19.83 0.216094 19.11L2.10609 15.39C2.90609 15.99 3.82609 16.46 4.86609 16.8C5.92609 17.12 7.00609 17.28 8.10609 17.28C9.32609 17.28 10.2861 17.05 10.9861 16.59C11.6861 16.11 12.0361 15.44 12.0361 14.58C12.0361 12.86 10.7261 12 8.10609 12H5.88609V8.79L10.2061 3.9H1.26609V-1.43051e-06H15.9661V3.15L11.2261 8.55Z" fill="black"/>
</svg>
