<svg width="167" height="27" viewBox="0 0 167 27" fill="none" xmlns="http://www.w3.org/2000/svg">
<path d="M0.023297 9.4H5.7473C7.1153 9.4 8.3213 9.664 9.3653 10.192C10.4213 10.708 11.2373 11.44 11.8133 12.388C12.4013 13.336 12.6953 14.44 12.6953 15.7C12.6953 16.96 12.4013 18.064 11.8133 19.012C11.2373 19.96 10.4213 20.698 9.3653 21.226C8.3213 21.742 7.1153 22 5.7473 22H0.023297V9.4ZM5.6033 19.606C6.8633 19.606 7.8653 19.258 8.6093 18.562C9.3653 17.854 9.7433 16.9 9.7433 15.7C9.7433 14.5 9.3653 13.552 8.6093 12.856C7.8653 12.148 6.8633 11.794 5.6033 11.794H2.9393V19.606H5.6033ZM26.4504 9.4V22H23.5344V16.834H17.8104V22H14.8944V9.4H17.8104V14.368H23.5344V9.4H26.4504ZM33.5715 22.216C32.5755 22.216 31.6095 22.084 30.6735 21.82C29.7495 21.544 29.0055 21.19 28.4415 20.758L29.4315 18.562C29.9715 18.958 30.6135 19.276 31.3575 19.516C32.1015 19.756 32.8455 19.876 33.5895 19.876C34.4175 19.876 35.0295 19.756 35.4255 19.516C35.8215 19.264 36.0195 18.934 36.0195 18.526C36.0195 18.226 35.8995 17.98 35.6595 17.788C35.4315 17.584 35.1315 17.422 34.7595 17.302C34.3995 17.182 33.9075 17.05 33.2835 16.906C32.3235 16.678 31.5375 16.45 30.9255 16.222C30.3135 15.994 29.7855 15.628 29.3415 15.124C28.9095 14.62 28.6935 13.948 28.6935 13.108C28.6935 12.376 28.8915 11.716 29.2875 11.128C29.6835 10.528 30.2775 10.054 31.0695 9.706C31.8735 9.358 32.8515 9.184 34.0035 9.184C34.8075 9.184 35.5935 9.28 36.3615 9.472C37.1295 9.664 37.8015 9.94 38.3775 10.3L37.4775 12.514C36.3135 11.854 35.1495 11.524 33.9855 11.524C33.1695 11.524 32.5635 11.656 32.1675 11.92C31.7835 12.184 31.5915 12.532 31.5915 12.964C31.5915 13.396 31.8135 13.72 32.2575 13.936C32.7135 14.14 33.4035 14.344 34.3275 14.548C35.2875 14.776 36.0735 15.004 36.6855 15.232C37.2975 15.46 37.8195 15.82 38.2515 16.312C38.6955 16.804 38.9175 17.47 38.9175 18.31C38.9175 19.03 38.7135 19.69 38.3055 20.29C37.9095 20.878 37.3095 21.346 36.5055 21.694C35.7015 22.042 34.7235 22.216 33.5715 22.216ZM52.8837 8.89C55.8437 8.89 58.0237 9.48 59.4237 10.66C60.8437 11.84 61.5537 13.42 61.5537 15.4C61.5537 16.68 61.2337 17.85 60.5937 18.91C59.9537 19.95 58.9737 20.79 57.6537 21.43C56.3537 22.05 54.7437 22.36 52.8237 22.36C51.3437 22.36 49.8837 22.17 48.4437 21.79C47.0237 21.39 45.8137 20.83 44.8137 20.11L46.7337 16.39C47.5337 16.99 48.4537 17.46 49.4937 17.8C50.5337 18.12 51.6037 18.28 52.7037 18.28C53.9237 18.28 54.8837 18.04 55.5837 17.56C56.2837 17.08 56.6337 16.41 56.6337 15.55C56.6337 14.65 56.2637 13.97 55.5237 13.51C54.8037 13.05 53.5437 12.82 51.7437 12.82H46.3737L47.4537 0.999999H60.2637V4.9H51.5037L51.1737 8.89H52.8837ZM70.579 8.89C73.539 8.89 75.719 9.48 77.119 10.66C78.539 11.84 79.249 13.42 79.249 15.4C79.249 16.68 78.929 17.85 78.289 18.91C77.649 19.95 76.669 20.79 75.349 21.43C74.049 22.05 72.439 22.36 70.519 22.36C69.039 22.36 67.579 22.17 66.139 21.79C64.719 21.39 63.509 20.83 62.509 20.11L64.429 16.39C65.229 16.99 66.149 17.46 67.189 17.8C68.229 18.12 69.299 18.28 70.399 18.28C71.619 18.28 72.579 18.04 73.279 17.56C73.979 17.08 74.329 16.41 74.329 15.55C74.329 14.65 73.959 13.97 73.219 13.51C72.499 13.05 71.239 12.82 69.439 12.82H64.069L65.149 0.999999H77.959V4.9H69.199L68.869 8.89H70.579ZM91.3308 8.83C92.6708 8.83 93.8908 9.1 94.9908 9.64C96.0908 10.18 96.9608 10.95 97.6008 11.95C98.2408 12.93 98.5608 14.07 98.5608 15.37C98.5608 16.77 98.2108 18 97.5108 19.06C96.8108 20.12 95.8508 20.94 94.6308 21.52C93.4308 22.08 92.0908 22.36 90.6108 22.36C87.6708 22.36 85.3708 21.46 83.7108 19.66C82.0508 17.86 81.2208 15.29 81.2208 11.95C81.2208 9.57 81.6708 7.53 82.5708 5.83C83.4708 4.13 84.7208 2.84 86.3208 1.96C87.9408 1.08 89.8108 0.64 91.9308 0.64C93.0508 0.64 94.1208 0.769999 95.1408 1.03C96.1808 1.27 97.0608 1.62 97.7808 2.08L95.9808 5.65C94.9408 4.95 93.6308 4.6 92.0508 4.6C90.2708 4.6 88.8608 5.12 87.8208 6.16C86.7808 7.2 86.2208 8.71 86.1408 10.69C87.3808 9.45 89.1108 8.83 91.3308 8.83ZM90.3408 18.73C91.3808 18.73 92.2208 18.45 92.8608 17.89C93.5208 17.33 93.8508 16.57 93.8508 15.61C93.8508 14.65 93.5208 13.89 92.8608 13.33C92.2208 12.75 91.3608 12.46 90.2808 12.46C89.2208 12.46 88.3508 12.76 87.6708 13.36C86.9908 13.94 86.6508 14.69 86.6508 15.61C86.6508 16.53 86.9808 17.28 87.6408 17.86C88.3008 18.44 89.2008 18.73 90.3408 18.73ZM103.405 16.42C104.245 16.42 104.935 16.69 105.475 17.23C106.015 17.75 106.285 18.44 106.285 19.3C106.285 19.7 106.235 20.1 106.135 20.5C106.035 20.9 105.815 21.5 105.475 22.3L103.765 26.62H100.795L102.115 21.85C101.615 21.65 101.215 21.33 100.915 20.89C100.635 20.43 100.495 19.9 100.495 19.3C100.495 18.44 100.765 17.75 101.305 17.23C101.865 16.69 102.565 16.42 103.405 16.42ZM117.086 22.36C115.346 22.36 113.796 21.93 112.436 21.07C111.076 20.21 110.006 18.97 109.226 17.35C108.466 15.71 108.086 13.76 108.086 11.5C108.086 9.24 108.466 7.3 109.226 5.68C110.006 4.04 111.076 2.79 112.436 1.93C113.796 1.07 115.346 0.64 117.086 0.64C118.826 0.64 120.376 1.07 121.736 1.93C123.096 2.79 124.156 4.04 124.916 5.68C125.696 7.3 126.086 9.24 126.086 11.5C126.086 13.76 125.696 15.71 124.916 17.35C124.156 18.97 123.096 20.21 121.736 21.07C120.376 21.93 118.826 22.36 117.086 22.36ZM117.086 18.25C118.366 18.25 119.366 17.7 120.086 16.6C120.826 15.5 121.196 13.8 121.196 11.5C121.196 9.2 120.826 7.5 120.086 6.4C119.366 5.3 118.366 4.75 117.086 4.75C115.826 4.75 114.826 5.3 114.086 6.4C113.366 7.5 113.006 9.2 113.006 11.5C113.006 13.8 113.366 15.5 114.086 16.6C114.826 17.7 115.826 18.25 117.086 18.25ZM137.447 22.36C135.707 22.36 134.157 21.93 132.797 21.07C131.437 20.21 130.367 18.97 129.587 17.35C128.827 15.71 128.447 13.76 128.447 11.5C128.447 9.24 128.827 7.3 129.587 5.68C130.367 4.04 131.437 2.79 132.797 1.93C134.157 1.07 135.707 0.64 137.447 0.64C139.187 0.64 140.737 1.07 142.097 1.93C143.457 2.79 144.517 4.04 145.277 5.68C146.057 7.3 146.447 9.24 146.447 11.5C146.447 13.76 146.057 15.71 145.277 17.35C144.517 18.97 143.457 20.21 142.097 21.07C140.737 21.93 139.187 22.36 137.447 22.36ZM137.447 18.25C138.727 18.25 139.727 17.7 140.447 16.6C141.187 15.5 141.557 13.8 141.557 11.5C141.557 9.2 141.187 7.5 140.447 6.4C139.727 5.3 138.727 4.75 137.447 4.75C136.187 4.75 135.187 5.3 134.447 6.4C133.727 7.5 133.367 9.2 133.367 11.5C133.367 13.8 133.727 15.5 134.447 16.6C135.187 17.7 136.187 18.25 137.447 18.25ZM157.809 22.36C156.069 22.36 154.519 21.93 153.159 21.07C151.799 20.21 150.729 18.97 149.949 17.35C149.189 15.71 148.809 13.76 148.809 11.5C148.809 9.24 149.189 7.3 149.949 5.68C150.729 4.04 151.799 2.79 153.159 1.93C154.519 1.07 156.069 0.64 157.809 0.64C159.549 0.64 161.099 1.07 162.459 1.93C163.819 2.79 164.879 4.04 165.639 5.68C166.419 7.3 166.809 9.24 166.809 11.5C166.809 13.76 166.419 15.71 165.639 17.35C164.879 18.97 163.819 20.21 162.459 21.07C161.099 21.93 159.549 22.36 157.809 22.36ZM157.809 18.25C159.089 18.25 160.089 17.7 160.809 16.6C161.549 15.5 161.919 13.8 161.919 11.5C161.919 9.2 161.549 7.5 160.809 6.4C160.089 5.3 159.089 4.75 157.809 4.75C156.549 4.75 155.549 5.3 154.809 6.4C154.089 7.5 153.729 9.2 153.729 11.5C153.729 13.8 154.089 15.5 154.809 16.6C155.549 17.7 156.549 18.25 157.809 18.25Z" fill="black"/>
</svg>
