<svg width="55" height="23" viewBox="0 0 55 23" fill="none" xmlns="http://www.w3.org/2000/svg">
<path d="M16.86 18.04V22H0.99V18.85L9.09 11.2C9.95 10.38 10.53 9.68 10.83 9.1C11.13 8.5 11.28 7.91 11.28 7.33C11.28 6.49 10.99 5.85 10.41 5.41C9.85 4.95 9.02 4.72 7.92 4.72C7 4.72 6.17 4.9 5.43 5.26C4.69 5.6 4.07 6.12 3.57 6.82L0.03 4.54C0.85 3.32 1.98 2.37 3.42 1.69C4.86 0.989999 6.51 0.64 8.37 0.64C9.93 0.64 11.29 0.899999 12.45 1.42C13.63 1.92 14.54 2.64 15.18 3.58C15.84 4.5 16.17 5.59 16.17 6.85C16.17 7.99 15.93 9.06 15.45 10.06C14.97 11.06 14.04 12.2 12.66 13.48L7.83 18.04H16.86ZM37.8023 17.59H34.3823V22H29.6423V17.59H18.3323V14.32L28.2323 0.999999H33.3323L24.1523 13.63H29.7923V9.7H34.3823V13.63H37.8023V17.59ZM48.8609 9.55C50.7009 9.85 52.1109 10.54 53.0909 11.62C54.0709 12.68 54.5609 14 54.5609 15.58C54.5609 16.8 54.2409 17.93 53.6009 18.97C52.9609 19.99 51.9809 20.81 50.6609 21.43C49.3609 22.05 47.7609 22.36 45.8609 22.36C44.3809 22.36 42.9209 22.17 41.4809 21.79C40.0609 21.39 38.8509 20.83 37.8509 20.11L39.7409 16.39C40.5409 16.99 41.4609 17.46 42.5009 17.8C43.5609 18.12 44.6409 18.28 45.7409 18.28C46.9609 18.28 47.9209 18.05 48.6209 17.59C49.3209 17.11 49.6709 16.44 49.6709 15.58C49.6709 13.86 48.3609 13 45.7409 13H43.5209V9.79L47.8409 4.9H38.9009V0.999999H53.6009V4.15L48.8609 9.55Z" fill="black"/>
</svg>
